<?xml version="1.0" encoding="UTF-8" standalone="no"?>
<svg
   xmlns:dc="http://purl.org/dc/elements/1.1/"
   xmlns:cc="http://creativecommons.org/ns#"
   xmlns:rdf="http://www.w3.org/1999/02/22-rdf-syntax-ns#"
   xmlns:svg="http://www.w3.org/2000/svg"
   xmlns="http://www.w3.org/2000/svg"
   version="1.1"
   id="svg3767"
   width="171.52203mm"
   height="35.98365mm"
   viewBox="0 0 648.27226 136.0012">
  <metadata
     id="metadata3773">
    <rdf:RDF>
      <cc:Work
         rdf:about="">
        <dc:format>image/svg+xml</dc:format>
        <dc:type
           rdf:resource="http://purl.org/dc/dcmitype/StillImage" />
        <dc:title></dc:title>
      </cc:Work>
    </rdf:RDF>
  </metadata>
  <defs
     id="defs3771" />
  <path
     style="stroke-width:1.13334322"
     fill="#fff"
     d="m 617.95553,133.74701 c -2.66078,-1.62231 -4.04134,-3.58746 -4.97326,-7.07915 l -1.29002,-4.83346 -11.19338,0.35897 c -23.01799,0.73816 -39.66295,-8.46139 -46.48602,-25.69248 -3.60458,-9.10307 -3.57446,-27.34104 0.0605,-36.66221 7.00065,-17.95161 26.10568,-28.20728 49.55425,-26.60094 27.6316,1.8929 43.67325,18.01193 43.67325,43.88394 0,10.96902 -2.96653,21.77851 -7.68311,27.99591 l -2.79424,3.68337 h 5.72439 5.72439 v 13.60012 13.60012 l -13.31678,-0.004 c -11.27575,-0.003 -13.8813,-0.34843 -17.00002,-2.24994 z m -10.9363,-35.73918 c 9.12063,-5.76173 9.36099,-31.97094 0.36265,-39.54254 -6.18726,-5.20625 -15.31129,-3.22951 -19.87313,4.30554 -3.19297,5.27401 -3.08535,24.56471 0.16828,30.16333 4.19558,7.21946 12.49804,9.39729 19.3422,5.07367 z m -441.55845,23.33432 c -7.85484,-2.38933 -14.63684,-8.05958 -17.03347,-14.24121 -2.21355,-5.70934 -1.69411,-16.47823 1.0547,-21.86638 4.54354,-8.90604 12.75023,-12.55689 36.06802,-16.0453 16.33541,-2.44383 20.96089,-4.34265 21.63813,-8.88274 0.19416,-1.30164 -0.69834,-3.418 -1.98335,-4.703 -4.84558,-4.84559 -20.46987,-1.80829 -20.46987,3.97926 0,1.32707 -2.95288,1.61776 -16.43348,1.61776 -18.39314,0 -17.62826,0.42842 -15.17542,-8.50008 1.95127,-7.10266 9.45294,-13.55016 19.40476,-16.6779 7.19822,-2.26232 10.52513,-2.58033 26.37093,-2.52077 14.44406,0.0543 19.28645,0.48154 23.80021,2.09987 7.98965,2.86455 12.92034,6.95131 15.69558,13.00917 2.19156,4.78377 2.44233,7.81034 2.98201,35.99113 0.53987,28.19001 0.77016,30.96776 2.74825,33.15029 l 2.15902,2.38215 h -17.69113 -17.69111 l -0.74417,-3.96671 c -0.40929,-2.18168 -0.91683,-3.9667 -1.12789,-3.9667 -0.21104,0 -2.57681,1.47239 -5.25725,3.272 -7.60864,5.10831 -14.47394,6.94037 -25.59665,6.83068 -5.43242,-0.0536 -11.15544,-0.48626 -12.71782,-0.96152 z m 33.2457,-18.61996 c 4.93585,-2.06233 7.61562,-6.45415 8.36429,-13.70813 l 0.61768,-5.98478 -10.57533,2.73946 c -5.81644,1.5067 -11.26382,3.31085 -12.1053,4.00921 -4.96804,4.1231 -4.3891,10.39372 1.1833,12.81658 4.65803,2.0253 7.8947,2.05831 12.51536,0.12766 z m 141.06722,17.49063 c -13.38897,-4.28098 -21.39209,-11.04359 -26.85637,-22.69357 -2.63116,-5.60968 -2.94199,-7.62485 -2.89249,-18.75189 0.0683,-15.36203 2.5163,-22.55122 10.7443,-31.55395 9.36809,-10.25019 24.00749,-15.19401 41.33403,-13.95879 21.99375,1.56796 36.91771,12.22382 42.10351,30.06237 2.7479,9.45244 1.73411,26.04045 -2.09927,34.34904 -5.53235,11.99101 -16.12745,20.48146 -29.36743,23.53383 -8.14458,1.87766 -25.64563,1.35365 -32.96628,-0.98704 z m 25.50321,-22.0394 c 3.18134,-1.91434 6.13313,-8.46452 7.02258,-15.58346 1.80168,-14.42007 -4.50473,-27.05614 -13.50312,-27.05614 -10.26578,0 -15.39337,7.40087 -15.39337,22.21787 0,7.11623 0.54166,10.1096 2.55002,14.09232 4.10406,8.13861 12.01252,10.72898 19.32389,6.32941 z m -92.90461,21.91067 c -6.94114,-1.37246 -11.40517,-4.04601 -13.66752,-8.18562 -1.69988,-3.11039 -2.08819,-7.68945 -2.56921,-30.29776 l -0.56667,-26.63356 -5.95006,-0.34256 -5.95005,-0.34257 v -9.57419 -9.57419 h 6.23339 6.23339 V 22.1002 9.06675 h 16.43348 16.43348 V 22.1002 35.13364 h 8.50007 8.50007 v 9.63342 9.63342 h -8.50007 -8.50007 v 17.64133 c 0,22.49465 0.75532,24.24366 10.48342,24.27502 l 5.38338,0.0174 v 11.75183 11.75181 l -4.25004,0.70248 c -5.79226,0.9574 -22.45918,0.68823 -28.24699,-0.45621 z M 0,61.76721 V 3.40003 l 33.15029,0.0197 c 35.930093,0.0213 43.650472,0.88804 53.699011,6.0284 15.063889,7.70597 22.259359,24.29912 18.600909,42.89468 -1.882,9.56609 -4.53655,14.38732 -11.240014,20.41432 -8.699362,7.82147 -17.061248,10.18413 -38.393041,10.84803 l -17.283484,0.53789 v 17.99569 17.99569 H 19.266835 0 Z M 62.97774,55.00794 C 70.094158,52.03451 72.374898,42.3457 67.361078,36.3871 63.751528,32.0974 58.61032,30.61472 47.317081,30.60659 l -8.78341,-0.006 v 13.03345 13.03345 h 10.23649 c 6.423386,0 11.715726,-0.61807 14.207579,-1.65923 z m 45.8232,6.75927 V 3.40003 h 16.43348 16.43348 V 61.76721 120.1344 H 125.23442 108.80094 Z M 410.27025,77.63402 V 35.13364 h 15.30013 15.30014 v 6.34712 6.3471 l 6.31653,-5.77294 c 7.97405,-7.28784 15.52088,-9.77629 26.78499,-8.83194 13.68733,1.14749 23.13275,8.50756 27.1276,21.13838 0.73923,2.33729 1.49101,16.86968 1.80487,34.88943 l 0.5379,30.88361 H 486.32327 469.2041 l -0.002,-25.21689 c -0.002,-27.89631 -0.77143,-31.63114 -7.13992,-34.65545 -4.35484,-2.06806 -11.21209,-0.74564 -14.55159,2.80626 -2.63357,2.80105 -2.67873,3.24982 -3.01422,29.95487 l -0.34007,27.11121 h -16.9429 -16.9429 z m 100.86755,0 V 35.13364 h 17.00016 17.00014 V 77.63402 120.1344 H 528.13796 511.1378 Z m 0,-65.73391 V 0 h 17.00016 17.00014 v 11.90011 11.9001 H 528.13796 511.1378 Z"
     id="path3777" />
</svg>
