<?xml version="1.0" encoding="utf-8"?>
<!-- Generator: Adobe Illustrator 25.2.3, SVG Export Plug-In . SVG Version: 6.00 Build 0)  -->
<svg version="1.1" id="Layer_1" xmlns="http://www.w3.org/2000/svg" xmlns:xlink="http://www.w3.org/1999/xlink" height="50" x="0px" y="0px"
	 viewBox="0 0 217 181" style="enable-background:new 0 0 217 181;" xml:space="preserve">
<style type="text/css">
	.st0{fill:#FFFFFF;}
</style>
<g>
	<g>
		<path d="M215.85,0.59H111.1H0.43v136.69v43.64l61-43.45l0.07-0.19h154.93V1.17C216.43,0.85,216.17,0.59,215.85,0.59z"/>
	</g>
</g>
<g>
	<path class="st0" d="M128.8,95.79c1.08,1.01,2.47,1.58,3.86,1.58c1.39,0,2.79-0.51,3.86-1.58l16.72-16.72l16.72,16.72
		c1.08,1.01,2.47,1.58,3.86,1.58c1.39,0,2.79-0.51,3.86-1.58c2.15-2.15,2.15-5.64,0-7.79l-16.72-16.78l16.85-16.66
		c2.15-2.15,2.15-5.64,0-7.79c-2.15-2.15-5.64-2.15-7.79,0l-16.72,16.72l-16.72-16.72c-2.15-2.15-5.64-2.15-7.79,0
		c-2.15,2.15-2.15,5.64,0,7.79l16.72,16.72L128.8,88C126.64,90.15,126.64,93.64,128.8,95.79z"/>
</g>
<g>
	<path class="st0" d="M49.26,95.73c1.08,1.01,2.47,1.58,3.86,1.58c1.39,0,2.79-0.51,3.86-1.58L98.21,54.5
		c2.15-2.15,2.15-5.64,0.13-7.79c-2.15-2.15-5.64-2.15-7.79,0L53.18,84.07l-14.5-14.5c-2.15-2.15-5.64-2.15-7.79,0
		c-2.15,2.15-2.15,5.64,0,7.79L49.26,95.73z"/>
</g>
</svg>
