<?xml version="1.0" encoding="utf-8"?>
<!-- Generator: Adobe Illustrator 25.2.3, SVG Export Plug-In . SVG Version: 6.00 Build 0)  -->
<svg version="1.1" id="Layer_1" xmlns="http://www.w3.org/2000/svg" xmlns:xlink="http://www.w3.org/1999/xlink" height="38" x="0px" y="0px"
	 viewBox="0 0 551 181" style="enable-background:new 0 0 551 181;" xml:space="preserve">
<style type="text/css">
	.st0{fill:#D700BD;}
	.st1{fill:#FFFFFF;}
</style>
<g>
	<rect x="0.43" y="0.59" class="st0" width="550.67" height="180.33"/>
</g>
<g>
	<path class="st1" d="M110.32,68.42h13.6v21.62h-14.41v-0.95c0-6.39-5.3-10.47-13.33-10.47c-7.07,0-11.29,2.72-11.29,7.21
		c0,3.94,2.45,5.58,10.74,7.21l7.75,1.36c14.55,2.72,21.76,9.25,21.76,19.58c0,12.65-9.65,20.8-24.75,20.8
		c-9.93,0-15.91-3.13-19.44-9.93V133H67.22v-22.43H81.9c0.54,7.61,5.57,11.83,14,11.83c7.07,0,11.97-2.99,11.97-7.34
		c0-2.18-1.22-4.35-3.13-5.44c-1.63-0.95-3.4-1.36-9.38-2.45l-8.29-1.5c-13.46-2.45-19.44-8.29-19.44-18.9
		c0-12.24,9.93-20.67,24.2-20.67c9.11,0,14.28,2.86,18.49,10.06V68.42z"/>
	<path class="st1" d="M159.27,81.74c1.77-5.3,3.54-7.75,7.34-10.74c4.35-3.26,9.52-4.89,15.5-4.89c10.88,0,17.68,4.76,20.4,14.14
		c2.99-8.84,11.01-14.14,21.76-14.14c14.28,0,22.71,8.29,22.71,22.44v32.63h9.11V133h-36.44v-11.83h8.7V93.03
		c0-9.38-3.94-14.55-11.29-14.55c-8.43,0-13.33,6.66-13.33,18.22v24.47h8.57V133h-35.76v-11.83h8.57v-29.1
		c0-8.57-3.94-13.6-10.74-13.6c-8.29,0-13.73,7.34-13.73,18.76v23.93h8.57V133h-36.85v-11.83H142V80.25h-9.65V68.42h26.92V81.74z"/>
	<path class="st1" d="M288.45,121.17h8.57V133h-36.44v-11.83h9.25V80.25h-9.25V68.42h27.87V121.17z M288.58,40.41v17.27h-19.31
		V40.41H288.58z"/>
	<path class="st1" d="M329.92,121.17h8.97V133h-37.12v-11.83h9.52V52.24h-9.52V40.41h28.15V121.17z"/>
	<path class="st1" d="M411.09,113.56c-0.82,3.94-2.86,7.89-6.25,11.83c-5.44,6.25-13.87,9.38-25.43,9.38
		c-21.35,0-34.4-13.05-34.4-34.26c0-21.35,12.78-34.4,33.72-34.4c22.16,0,33.18,11.96,33.18,36.3v2.85h-48.68
		c0.68,11.01,6.53,17.13,16.45,17.13c7.48,0,12.37-3.13,14-8.84H411.09z M393.69,94.39c-0.41-10.33-5.58-15.91-14.69-15.91
		c-8.97,0-14.41,5.57-15.36,15.91H393.69z"/>
	<path class="st1" d="M463.99,68.42h13.6v21.62h-14.41v-0.95c0-6.39-5.3-10.47-13.33-10.47c-7.07,0-11.29,2.72-11.29,7.21
		c0,3.94,2.45,5.58,10.74,7.21l7.75,1.36c14.55,2.72,21.76,9.25,21.76,19.58c0,12.65-9.65,20.8-24.75,20.8
		c-9.93,0-15.91-3.13-19.44-9.93V133h-13.73v-22.43h14.68c0.54,7.61,5.58,11.83,14,11.83c7.07,0,11.97-2.99,11.97-7.34
		c0-2.18-1.22-4.35-3.13-5.44c-1.63-0.95-3.4-1.36-9.38-2.45l-8.29-1.5c-13.46-2.45-19.44-8.29-19.44-18.9
		c0-12.24,9.93-20.67,24.2-20.67c9.11,0,14.28,2.86,18.49,10.06V68.42z"/>
</g>
</svg>
